HIERARCHY
ROOT Hips
{
	OFFSET 0.00000 0.00000 0.00000
	CHANNELS 6 Xposition Yposition Zposition Yrotation Zrotation Xrotation 
	JOINT Lumbar
	{
		OFFSET 0 0 0
		CHANNELS 3 Zrotation Xrotation Yrotation
		JOINT Neck
		{
			OFFSET 0.00 0.2701 0.00
			CHANNELS 3 Zrotation Xrotation Yrotation
			End Site
			{
				OFFSET 0.00 0.1379 0.00
			}
		}
		JOINT RightShoulder
		{
			OFFSET 0.0119 0.2289 0.1181
			CHANNELS 3 Zrotation Xrotation Yrotation
			JOINT RightElbow
			{
				OFFSET 0.00 -0.1475 0.00
				CHANNELS 2 Zrotation Yrotation
				JOINT RightWrist
				{
					OFFSET 0.00 -0.1605 0.00
					CHANNELS 2 Zrotation Xrotation
					End Site
					{
						OFFSET 0.0040 -0.1068 0.0006
					}
				}
			}
		}
		JOINT LeftShoulder
		{
			OFFSET 0.0119 0.2289 -0.1181
			CHANNELS 3 Zrotation Xrotation Yrotation
			JOINT LeftElbow
			{
				OFFSET 0.00 -0.1475 0.00
				CHANNELS 2 Zrotation Yrotation
				JOINT LeftWrist
				{
					OFFSET 0.00 -0.1605 0.00
					CHANNELS 2 Zrotation Xrotation
					End Site
					{
						OFFSET 0.0040 -0.1068 -0.0006
					}
				}
			}
		}
	}
	JOINT RightHip
	{
		OFFSET 0.0316 -0.0424 0.0458
		CHANNELS 3 Zrotation Xrotation Yrotation
		JOINT RightKnee
		{
			OFFSET 0.00 -0.2438 0.00
			CHANNELS 1 Zrotation
			JOINT RightAnkle
			{
				OFFSET 0.00 -0.2449 0.00
				CHANNELS 3 Zrotation Xrotation Yrotation
				End Site
				{
					OFFSET 0.1237 -0.0542 0.0051
				}
			}
		}
	}
	JOINT LeftHip
	{
		OFFSET 0.0316 -0.0424 -0.0458
		CHANNELS 3 Zrotation Xrotation Yrotation
		JOINT LeftKnee
		{
			OFFSET 0.00 -0.2438 0.00
			CHANNELS 1 Zrotation
			JOINT LeftAnkle
			{
				OFFSET 0.00 -0.2449 0.00
				CHANNELS 3 Zrotation Xrotation Yrotation
				End Site
				{
					OFFSET 0.1237 -0.0542 -0.0051
				}
			}
		}
	}
}
MOTION
Frames: 20
Frame Time: 0.02
0.24037 0.56746 -0.07291 174.57574 0 -2.55211 5.26105 5.28757 -2.84049 -14.17081 3.27267 0.20759 54.9217 -1.48657 20.82384 134.3013 6.93199 82.27036 -20.17529 -3.7516 31.3966 -54.34371 63.93033 -126.74275 -73.44407 11.13577 -0.36386 11.92317 10.02774 -20.94548 12.63615 -7.09084 -6.44972 27.90502 0.99808 -8.32415 -52.62614 2.34957 3.46902 16.85844
0.24192 0.56752 -0.07331 175.00197 0 -2.576 4.94898 5.15799 -3.10359 -12.90016 3.38584 -0.15968 53.79257 -0.98657 19.60291 134.3013 7.38253 81.25419 -19.71447 -5.32206 31.35096 -54.36211 63.82691 -126.45152 -73.4586 11.13447 -0.15063 11.95894 9.39543 -21.03798 12.61557 -6.92898 -6.25653 28.10741 0.79109 -8.90094 -52.59105 2.02745 3.38427 16.87118
0.24355 0.5675 -0.07369 175.48601 0 -2.69019 4.58658 5.14878 -3.23031 -11.42593 3.3225 -0.61589 52.33874 -0.33131 18.48186 134.3013 8.0059 79.99431 -19.21523 -7.06795 31.5137 -54.38501 63.75276 -126.20045 -73.47484 11.13843 0.04353 12.02849 8.46081 -21.05478 12.60109 -6.56595 -5.80279 28.38331 0.59689 -9.64509 -52.67806 1.6969 3.29623 16.89057
0.24514 0.56751 -0.07408 175.94509 0 -2.76533 4.24954 5.08459 -3.41396 -10.06195 3.34817 -1.02206 51.046 0.24171 17.31789 134.3013 8.56262 78.88605 -18.73008 -8.70652 31.56632 -54.40532 63.65668 -125.94456 -73.48973 11.14041 0.24282 12.08238 7.65236 -21.10046 12.58319 -6.28124 -5.45494 28.62627 0.39876 -10.31337 -52.71186 1.37181 3.21076 16.90587
0.24675 0.56755 -0.07446 176.40347 0 -2.83027 3.90025 5.0202 -3.62417 -8.61839 3.33642 -1.47124 49.69358 0.86796 16.15147 134.3013 9.06208 77.60122 -18.24871 -10.47088 31.68655 -54.42785 63.59991 -125.62687 -73.5072 11.14055 0.45643 12.13672 6.89346 -21.16806 12.56606 -6.05461 -5.16578 28.86871 0.19026 -10.98031 -52.73526 1.0355 3.11997 16.92511
0.24834 0.56752 -0.07487 176.87482 0 -2.93843 3.56541 4.98485 -3.74518 -7.29495 3.363 -1.85094 48.39009 1.41776 15.00763 134.3013 9.73187 76.63013 -17.76075 -12.01027 31.71175 -54.44685 63.46563 -125.44885 -73.51965 11.14582 0.63583 12.19847 5.95888 -21.17273 12.54915 -5.65871 -4.69032 29.12866 0.00746 -11.68988 -52.80917 0.72269 3.03987 16.93796
0.24989 0.56733 -0.07537 177.37222 0 -3.14602 3.28019 5.00648 -3.64675 -6.34172 3.51131 -2.01836 47.29163 1.7303 13.94207 134.3013 10.73513 76.55538 -17.18264 -12.89892 31.4575 -54.45516 63.12877 -125.65368 -73.51783 11.16375 0.72636 12.27261 4.61048 -21.02 12.53581 -4.83864 -3.7631 29.42506 -0.10884 -12.47763 -52.99855 0.47106 2.98901 16.93135
0.25141 0.56708 -0.07591 177.87924 0 -3.39389 3.01194 5.05236 -3.46361 -5.51884 3.70894 -2.11232 46.25541 1.95802 12.88842 134.30129 11.91814 76.8094 -16.61326 -13.55173 31.09442 -54.45974 62.70956 -125.99732 -73.51089 11.18672 0.78294 12.35315 3.0955 -20.80706 12.52192 -3.85644 -2.65678 29.73533 -0.19906 -13.30219 -53.23376 0.24503 2.94934 16.91819
0.25294 0.56686 -0.07645 178.37833 0 -3.62209 2.73784 5.08326 -3.32275 -4.6445 3.90172 -2.23853 45.19751 2.21635 11.80121 134.30129 13.0847 76.93396 -16.09569 -14.30221 30.75866 -54.46594 62.3153 -126.27351 -73.50628 11.20756 0.8547 12.43073 1.65867 -20.6234 12.50575 -2.95111 -1.63227 30.03508 -0.30014 -14.10923 -53.4442 0.01155 2.90537 16.90822
0.25449 0.56665 -0.07694 178.89445 0 -3.85898 2.45413 5.1348 -3.16141 -3.73101 4.01473 -2.37219 44.10135 2.51334 10.83313 134.30129 13.99489 76.97036 -15.34778 -15.09797 30.52262 -54.47261 61.97349 -126.56895 -73.50172 11.22791 0.9273 12.50963 0.20253 -20.4293 12.50063 -2.02276 -0.59682 30.35502 -0.40534 -14.92602 -53.67509 -0.24012 2.85791 16.89759
0.25598 0.56641 -0.07753 179.3767 0 -4.08643 2.19509 5.14783 -3.02416 -2.9316 4.30729 -2.47233 43.10267 2.70804 9.62254 134.30128 15.46316 77.26585 -15.07401 -15.74254 30.05161 -54.47736 61.50408 -126.85734 -73.49582 11.25041 0.98977 12.58697 -1.2509 -20.24322 12.47204 -1.10973 0.45476 30.63548 -0.49547 -15.72835 -53.87323 -0.44751 2.82048 16.88667
0.25727 0.56613 -0.07838 179.76179 0 -4.27533 2.00065 5.04584 -2.97626 -2.42674 5.08914 -2.49219 42.37128 2.6364 7.70557 134.30129 18.56859 78.24783 -16.17886 -16.01269 28.94673 -54.47767 60.6887 -127.08724 -73.4874 11.27751 1.03758 12.6572 -2.63802 -20.09809 12.38153 -0.25212 1.50739 30.80111 -0.55413 -16.48687 -53.96429 -0.54023 2.80771 16.87664
0.25848 0.56584 -0.07933 180.11227 0 -4.4533 1.83068 4.90424 -2.95568 -2.0316 6.04941 -2.48152 41.73579 2.46471 5.5515 134.30129 22.20272 79.47108 -17.74778 -16.14015 27.61077 -54.47615 59.75037 -127.30586 -73.4778 11.30659 1.07556 12.72565 -4.01801 -19.96283 12.26718 0.5781 2.56818 30.92653 -0.59788 -17.22757 -54.0211 -0.58894 2.80474 16.86648
0.25972 0.56555 -0.08025 180.47928 0 -4.6377 1.64922 4.78195 -2.92204 -1.57915 6.92582 -2.48801 41.04827 2.34118 3.52568 134.3013 25.50169 80.551 -19.05714 -16.34227 26.38658 -54.47546 58.87696 -127.53294 -73.46879 11.33477 1.11482 12.7956 -5.41223 -19.82062 12.16156 1.40299 3.62444 31.07168 -0.646 -17.97253 -54.09668 -0.65693 2.7975 16.85628
0.26101 0.56527 -0.08114 180.84381 0 -4.8178 1.46948 4.65487 -2.88857 -1.16052 7.81736 -2.47781 40.39509 2.20385 1.4074 134.3013 29.20645 81.78338 -20.5708 -16.49695 25.12813 -54.47465 57.96169 -127.75144 -73.45939 11.36306 1.16624 12.86304 -6.76817 -19.68621 12.06364 2.31046 4.69285 31.21159 -0.70327 -18.73597 -54.16088 -0.72724 2.78986 16.84629
0.26218 0.56497 -0.0821 181.2045 0 -5.0032 1.29222 4.52824 -2.86172 -0.69837 8.7169 -2.49647 39.69652 2.07206 -0.56676 134.30131 32.19073 82.75259 -21.77079 -16.71697 23.89015 -54.47369 57.1065 -127.98256 -73.45059 11.3916 1.19055 12.93499 -8.1973 -19.53923 11.94549 3.03511 5.7327 31.35221 -0.73837 -19.45506 -54.23945 -0.78238 2.78526 16.83591
0.26306 0.56461 -0.08323 181.56824 0 -5.20976 1.11187 4.41037 -2.8528 -0.06749 9.61345 -2.59874 38.81443 1.98455 -2.15436 134.30131 33.04079 82.92313 -21.9759 -17.1757 22.74434 -54.4729 56.43995 -128.25661 -73.44371 11.41939 1.14184 13.02162 -9.84939 -19.35112 11.76439 3.27956 6.71401 31.50826 -0.7154 -20.06471 -54.37027 -0.80854 2.78637 16.82434
0.26383 0.56423 -0.08443 181.92816 0 -5.42085 0.93385 4.29452 -2.84898 0.60735 10.50772 -2.73187 37.88981 1.90564 -3.57633 134.30131 33.1492 82.82121 -21.85204 -17.70191 21.63222 -54.47201 55.84052 -128.54186 -73.43751 11.44739 1.06655 13.11243 -11.56948 -19.15114 11.56601 3.33722 7.66082 31.66558 -0.67092 -20.62805 -54.51549 -0.82075 2.79021 16.81231
0.26464 0.56386 -0.0856 182.28653 0 -5.62742 0.75723 4.17913 -2.83895 1.24875 11.39124 -2.85393 37.00678 1.82021 -5.02806 134.30131 33.60658 82.851 -21.88882 -18.18309 20.51802 -54.47109 55.2148 -128.81802 -73.43104 11.47604 1.00388 13.20019 -13.24685 -18.95948 11.38425 3.4672 8.60831 31.81998 -0.63666 -21.20734 -54.65135 -0.83803 2.79294 16.80077
0.26548 0.56348 -0.08679 182.65805 0 -5.84501 0.57096 4.05684 -2.84571 1.94396 12.33276 -2.96352 36.03204 1.7422 -6.67822 134.30131 34.03318 82.85647 -21.89508 -18.7198 19.33702 -54.47042 54.56438 -129.11152 -73.42436 11.50209 0.93822 13.29296 -14.97992 -18.75552 11.16535 3.64756 9.62105 31.98325 -0.59972 -21.80954 -54.79876 -0.85892 2.79548 16.78857
